Coordinates
version=1
nRows=12
nColumns=24
inDegrees=yes

Units are S.I. units (second, meters, Newtons, ...)
Angles are in degrees.

endheader
time	pelvis_tilt	pelvis_list	pelvis_rotation	pelvis_tx	pelvis_ty	pelvis_tz	hip_flexion_r	hip_adduction_r	hip_rotation_r	knee_angle_r	ankle_angle_r	subtalar_angle_r	mtp_angle_r	hip_flexion_l	hip_adduction_l	hip_rotation_l	knee_angle_l	ankle_angle_l	subtalar_angle_l	mtp_angle_l	lumbar_extension	lumbar_bending	lumbar_rotation
      1.59116667	      3.40797072	      3.97185962	     -4.08934800	      0.45788839	      1.07775236	      0.30301064	     11.41339148	     -6.28455996	      1.28691164	    -53.68103618	      4.64610251	    -14.07725080	     10.40212103	      2.24705759	      9.56980743	     -9.24754291	     -8.72674298	      2.41334629	     -2.53799383	     -1.19722124	      1.72115739	     -1.63611666	      0.37529152
      1.59533333	      3.39604550	      4.05419336	     -4.03223644	      0.46238433	      1.07803601	      0.30308475	     11.90681746	     -6.28551674	      1.50787603	    -53.23626119	      4.78464788	    -14.22657433	     10.34009202	      1.87560079	      9.69412247	     -9.08276261	     -8.48445368	      2.43855647	     -2.49409211	     -1.22009616	      1.68396626	     -1.67981221	      0.33535145
      1.59950000	      3.37297815	      4.14777721	     -3.94368006	      0.46685393	      1.07827807	      0.30310810	     12.40633489	     -6.30566291	      1.65502611	    -52.79588523	      5.14594650	    -14.70962301	     10.11943771	      1.52156459	      9.83366440	     -8.93229513	     -8.25272750	      2.51634154	     -2.60347003	     -1.30789517	      1.69882456	     -1.84163634	      0.22925760
      1.60366667	      3.35677923	      4.21466062	     -3.88905788	      0.47130846	      1.07851782	      0.30322093	     12.88824696	     -6.28214422	      1.87738663	    -52.29340910	      5.25468728	    -14.83315494	     10.06214624	      1.14860453	      9.93993016	     -8.77138124	     -7.99590712	      2.53679580	     -2.57661489	     -1.32978134	      1.66030181	     -1.87952774	      0.19310107
      1.60783333	      3.35095950	      4.31889766	     -3.84716495	      0.47575958	      1.07871959	      0.30319100	     13.37011937	     -6.32013441	      2.06037547	    -51.80836779	      5.49352661	    -15.14978808	      9.93094128	      0.75688405	     10.10851106	     -8.57983375	     -7.71055688	      2.58840465	     -2.64396465	     -1.38272299	      1.69176441	     -1.98928095	      0.12916011
      1.61200000	      3.32179945	      4.39358010	     -3.78753241	      0.48019471	      1.07889227	      0.30328712	     13.85474316	     -6.30586384	      2.25425025	    -51.27053795	      5.66210488	    -15.40016897	      9.80028364	      0.38890657	     10.22754414	     -8.38814073	     -7.43232769	      2.61812070	     -2.73406925	     -1.43720459	      1.68757356	     -2.07811369	      0.06285837
      1.61616667	      3.27723589	      4.43270129	     -3.69769971	      0.48464656	      1.07905461	      0.30348535	     14.32471432	     -6.23997277	      2.44326320	    -50.67923331	      5.76559773	    -15.51129445	      9.74452343	      0.04341131	     10.28813780	     -8.25907918	     -7.18955098	      2.63920755	     -2.76520582	     -1.46043363	      1.63967771	     -2.13909974	      0.03209917
      1.62033333	      3.16034961	      4.53998481	     -3.59608408	      0.48901952	      1.07900567	      0.30329533	     14.90591785	     -6.29218731	      2.54996694	    -50.12073191	      5.81704477	    -15.99009100	      9.09575372	     -0.24153307	     10.47009688	     -7.80943584	     -6.86841607	      2.51631276	     -3.43955611	     -1.75270556	      1.73447968	     -2.22153524	     -0.26414640
      1.62450000	      3.14529202	      4.58096205	     -3.53682733	      0.49347789	      1.07914938	      0.30351960	     15.33225979	     -6.22809557	      2.75330343	    -49.48369230	      5.91817808	    -16.02182302	      9.04171812	     -0.63174320	     10.54050238	     -7.68528462	     -6.59194616	      2.54856701	     -3.40752175	     -1.77524060	      1.73102261	     -2.31541890	     -0.26794870
      1.62866667	      3.12139633	      4.65109560	     -3.46894081	      0.49788045	      1.07920990	      0.30353678	     15.77989880	     -6.22127238	      2.89912793	    -48.86247589	      6.12529673	    -16.19620991	      8.64995951	     -1.02368037	     10.66961585	     -7.38995271	     -6.27644202	      2.63666199	     -3.74153951	     -1.95509207	      1.78730163	     -2.44915571	     -0.33666796
      1.63283333	      3.07715762	      4.70088552	     -3.42584144	      0.50224366	      1.07922469	      0.30375647	     16.23980729	     -6.16184045	      3.11562046	    -48.19689975	      6.15517197	    -16.21127881	      8.59458768	     -1.37812308	     10.75430282	     -7.23692114	     -5.98898163	      2.62544302	     -3.71854075	     -1.98008732	      1.73634648	     -2.47340170	     -0.35646682
      1.63700000	      3.00281958	      4.77876869	     -3.33173353	      0.50662673	      1.07913818	      0.30361181	     16.72691373	     -6.18282274	      3.21933015	    -47.52451349	      6.08755951	    -16.36554786	      7.98523868	     -1.73248177	     10.90590366	     -6.73286739	     -5.63626706	      2.51281571	     -4.41066185	     -2.27994519	      1.78441717	     -2.50705188	     -0.49046626
